<?xml version="1.0" encoding="utf-8"?>
<!-- Generator: Adobe Illustrator 23.1.1, SVG Export Plug-In . SVG Version: 6.00 Build 0)  -->
<svg version="1.1" id="Layer_1" xmlns="http://www.w3.org/2000/svg" xmlns:xlink="http://www.w3.org/1999/xlink" x="0px" y="0px"
	 viewBox="0 0 141.7 177.2" style="enable-background:new 0 0 141.7 177.2;" xml:space="preserve">
<style type="text/css">
	.st0{fill:#224500;}
	.st1{fill:url(#path3513_1_);stroke:#224500;stroke-width:10;stroke-linecap:round;stroke-linejoin:round;}
	.st2{opacity:0.3867;fill:none;stroke:#224500;stroke-width:10;enable-background:new    ;}
	.st3{opacity:0.2756;fill:none;stroke:url(#path3517_1_);stroke-width:10;enable-background:new    ;}
	.st4{opacity:0.2756;fill:none;stroke:url(#path3519_1_);stroke-width:10;enable-background:new    ;}
	.st5{opacity:0.2756;fill:none;stroke:url(#path3521_1_);stroke-width:10;enable-background:new    ;}
	.st6{opacity:0.2756;fill:none;stroke:#224500;stroke-width:10;enable-background:new    ;}
	.st7{opacity:0.2756;fill:none;stroke:url(#path3525_1_);stroke-width:10;enable-background:new    ;}
	.st8{opacity:0.2756;fill:none;stroke:url(#path3527_1_);stroke-width:10;enable-background:new    ;}
	.st9{opacity:0.2756;fill:none;stroke:url(#path3529_1_);stroke-width:10;enable-background:new    ;}
	.st10{opacity:0.2756;fill:none;stroke:url(#path3531_1_);stroke-width:10;enable-background:new    ;}
	.st11{opacity:0.1778;fill:url(#path3533_1_);enable-background:new    ;}
</style>
<g>
	<title>Layer 1</title>
	<g id="layer1" transform="rotate(16.174482345581055 61.95336914062493,97.62325286865236) ">
		
			<g id="g3509" transform="matrix(0.07423127564328291,0.13802082474966723,-0.1446560859075945,0.07082634527420115,122.23715636350724,-168.26328478177803) ">
			<path id="path3511" class="st0" d="M1473.4,1116.2c9.5-12.9,14-14,21.9-25.4c59.6-86.8,79-149.2,116.1-266.9
				c-2.7-25.5,1.5-6.1-16.2-5.3C1577.8,941,1513.4,1032.7,1473.4,1116.2z"/>
			
				<linearGradient id="path3513_1_" gradientUnits="userSpaceOnUse" x1="1925.6537" y1="2931.0007" x2="1925.9261" y2="2931.2542" gradientTransform="matrix(-13.6685 90.894 -90.9272 -21.6018 293943.8438 -110684.0234)">
				<stop  offset="0" style="stop-color:#54A706"/>
				<stop  offset="1" style="stop-color:#3D7A04"/>
			</linearGradient>
			<path id="path3513" class="st1" d="M902.2,1348.3c597,256.8,761.6-81.5,587.1-260.5C1467.9,869,1132.6,735.5,902.2,1348.3z"/>
			<path id="path3515" class="st2" d="M902.2,1348.3c158.6-48.5,309.1-88.8,587.1-260.5"/>
			
				<linearGradient id="path3517_1_" gradientUnits="userSpaceOnUse" x1="2017.3247" y1="2934.3257" x2="2018.3247" y2="2931.7896" gradientTransform="matrix(2.0025 13.6993 -30.4943 -10.7941 86587.7422 5277.9551)">
				<stop  offset="0" style="stop-color:#224500"/>
				<stop  offset="1" style="stop-color:#224500;stop-opacity:0"/>
			</linearGradient>
			<path id="path3517" class="st3" d="M1187.7,1248.7c-13.5-43-88-128.7-160.6-152.1"/>
			
				<linearGradient id="path3519_1_" gradientUnits="userSpaceOnUse" x1="1990.8207" y1="2937.1555" x2="1991.8207" y2="2935.4775" gradientTransform="matrix(2.1419 17.7951 -37.7134 -13.1692 107583.3359 4333.5986)">
				<stop  offset="0" style="stop-color:#224500"/>
				<stop  offset="1" style="stop-color:#224500;stop-opacity:0"/>
			</linearGradient>
			<path id="path3519" class="st4" d="M1298.7,1196.1c-11.6-71.7-132.6-178.1-196.5-192.7"/>
			
				<linearGradient id="path3521_1_" gradientUnits="userSpaceOnUse" x1="1979.4731" y1="2934.9146" x2="1980.4731" y2="2933.375" gradientTransform="matrix(1.3111 20.4876 -38.6467 -13.0188 112029.7656 -1333.2352)">
				<stop  offset="0" style="stop-color:#224500"/>
				<stop  offset="1" style="stop-color:#224500;stop-opacity:0"/>
			</linearGradient>
			<path id="path3521" class="st5" d="M1418.2,1130.5c-24.8-128.9-103.6-183.9-195.2-210.8"/>
			<path id="path3523" class="st6" d="M1078.3,1292c-10.3-33.3-70.2-79-114.1-86.8"/>
			
				<linearGradient id="path3525_1_" gradientUnits="userSpaceOnUse" x1="1961.9604" y1="2906.2983" x2="1963.4504" y2="2906.2983" gradientTransform="matrix(-6.054 24.6116 -14.8962 -1.4831 56356.2617 -42731.0742)">
				<stop  offset="0" style="stop-color:#224500"/>
				<stop  offset="1" style="stop-color:#224500;stop-opacity:0"/>
			</linearGradient>
			<path id="path3525" class="st7" d="M1190.6,1247.5c25.6,37.3,53.4,118.8,26.4,188.9"/>
			
				<linearGradient id="path3527_1_" gradientUnits="userSpaceOnUse" x1="1951.5168" y1="2916.8015" x2="1952.8186" y2="2916.8015" gradientTransform="matrix(-6.5559 30.3639 -22.1513 -3.524 78720.5625 -47778.918)">
				<stop  offset="0" style="stop-color:#224500"/>
				<stop  offset="1" style="stop-color:#224500;stop-opacity:0"/>
			</linearGradient>
			<path id="path3527" class="st8" d="M1304.5,1193.1c49.6,53.9,85.5,183.1,57,241.1"/>
			
				<linearGradient id="path3529_1_" gradientUnits="userSpaceOnUse" x1="1949.1299" y1="2916.5701" x2="1950.6141" y2="2916.5701" gradientTransform="matrix(-7.2284 32.2811 -22.4812 -3.2667 81093.5938 -52256.3281)">
				<stop  offset="0" style="stop-color:#224500"/>
				<stop  offset="1" style="stop-color:#224500;stop-opacity:0"/>
			</linearGradient>
			<path id="path3529" class="st9" d="M1425.1,1131.3c86.7,99.9,89.9,167.2,53.6,254"/>
			
				<linearGradient id="path3531_1_" gradientUnits="userSpaceOnUse" x1="1990.7745" y1="2872.5393" x2="1991.9968" y2="2872.5393" gradientTransform="matrix(-4.5885 16.44 -7.6994 1.993098e-02 32327.4375 -31496.334)">
				<stop  offset="0" style="stop-color:#224500"/>
				<stop  offset="1" style="stop-color:#224500;stop-opacity:0"/>
			</linearGradient>
			<path id="path3531" class="st10" d="M1080.5,1291.2c20,28.7,23.2,82.5,1.8,120.9"/>
			
				<linearGradient id="path3533_1_" gradientUnits="userSpaceOnUse" x1="1928.2501" y1="2933.1414" x2="1929.3956" y2="2932.4927" gradientTransform="matrix(-13.6685 90.894 -90.9272 -21.6018 293943.8438 -110684.0234)">
				<stop  offset="0" style="stop-color:#FFFFFF"/>
				<stop  offset="1" style="stop-color:#EEEEEC;stop-opacity:0"/>
			</linearGradient>
			<path id="path3533" class="st11" d="M902.2,1348.3c597,256.8,761.6-81.5,587.1-260.5C1467.9,869,1132.6,735.5,902.2,1348.3z"/>
		</g>
	</g>
</g>
</svg>
